<?xml version="1.0"?><!DOCTYPE svg PUBLIC "-//W3C//DTD SVG 1.1//EN" "http://www.w3.org/Graphics/SVG/1.1/DTD/svg11.dtd"><svg xmlns="http://www.w3.org/2000/svg" xmlns:xlink="http://www.w3.org/1999/xlink"><symbol viewBox="0 0 455.992 455.992" id="arrow-right-circle" xmlns="http://www.w3.org/2000/svg"><path d="M227.996 0C102.081 0 0 102.081 0 227.996c0 125.945 102.081 227.996 227.996 227.996 125.945 0 227.996-102.051 227.996-227.996C455.992 102.081 353.941 0 227.996 0zm71.439 238.788l-98.585 98.585c-5.928 5.897-15.565 5.897-21.492 0-5.928-5.928-5.928-15.595 0-21.492l87.885-87.885-87.885-87.885c-5.928-5.928-5.928-15.565 0-21.492s15.565-5.928 21.492 0l98.585 98.585c3.04 2.979 4.469 6.901 4.438 10.792 0 3.922-1.459 7.813-4.438 10.792z" data-original="#010002" class="aactive-path" data-old_color="#C799F3"/></symbol><symbol viewBox="0 0 489 489" id="cart" xmlns="http://www.w3.org/2000/svg"><path d="M440.1 422.7l-28-315.3c-.6-7-6.5-12.3-13.4-12.3h-57.6C340.3 42.5 297.3 0 244.5 0s-95.8 42.5-96.6 95.1H90.3c-7 0-12.8 5.3-13.4 12.3l-28 315.3c0 .4-.1.8-.1 1.2 0 35.9 32.9 65.1 73.4 65.1h244.6c40.5 0 73.4-29.2 73.4-65.1 0-.4 0-.8-.1-1.2zM244.5 27c37.9 0 68.8 30.4 69.6 68.1H174.9c.8-37.7 31.7-68.1 69.6-68.1zm122.3 435H122.2c-25.4 0-46-16.8-46.4-37.5l26.8-302.3h45.2v41c0 7.5 6 13.5 13.5 13.5s13.5-6 13.5-13.5v-41h139.3v41c0 7.5 6 13.5 13.5 13.5s13.5-6 13.5-13.5v-41h45.2l26.9 302.3c-.4 20.7-21.1 37.5-46.4 37.5z"/></symbol><symbol viewBox="0 0 60 60" id="folder" xmlns="http://www.w3.org/2000/svg"><path d="M14 23.5a.566.566 0 0 0-.545.417L2 52.5v1c0 .734-.047 1 .565 1h44.759c1.156 0 2.174-.779 2.45-1.813L60 24.5v-1H14z"/><path d="M12.731 21.5H54v-6.268a2.735 2.735 0 0 0-2.732-2.732H26.515l-5-7H2.732A2.736 2.736 0 0 0 0 8.232v41.796l10.282-26.717c.275-1.032 1.293-1.811 2.449-1.811z"/></symbol><symbol viewBox="0 0 512.001 512.001" id="layers" xmlns="http://www.w3.org/2000/svg"><path d="M512 256.001c0-10.821-6.012-20.551-15.694-25.398l-38.122-19.061 38.122-19.06a.014.014 0 0 1 .004-.002c9.68-4.845 15.692-14.576 15.692-25.397 0-10.819-6.013-20.55-15.694-25.397L281.09 34.08c-15.712-7.849-34.47-7.849-50.185.001L15.691 141.691C6.013 146.534 0 156.264 0 167.084c0 10.821 6.012 20.551 15.694 25.398l38.121 19.06-38.126 19.063C6.012 235.45 0 245.18 0 256.001s6.012 20.551 15.694 25.397l38.121 19.061-38.118 19.059C6.02 324.353.004 334.08 0 344.902c-.004 10.828 6.008 20.564 15.694 25.412l215.215 107.608c7.856 3.925 16.471 5.886 25.09 5.886s17.238-1.963 25.095-5.887l215.215-107.608c9.682-4.845 15.695-14.582 15.691-25.41-.004-10.822-6.02-20.549-15.694-25.381l-38.122-19.061 38.126-19.063c9.678-4.846 15.69-14.576 15.69-25.397zm-485.775-84.57c-2.339-1.171-2.687-3.226-2.687-4.346s.35-3.175 2.683-4.343L241.429 55.138a32.617 32.617 0 0 1 14.573-3.418 32.614 32.614 0 0 1 14.567 3.417L485.776 162.74c2.337 1.17 2.687 3.225 2.687 4.345s-.348 3.175-2.687 4.346L270.572 279.032c-9.125 4.558-20.019 4.558-29.139.001L26.225 171.431zm459.558 169.144c2.33 1.164 2.679 3.215 2.679 4.336.001 1.123-.348 3.182-2.683 4.35L270.571 456.865c-9.125 4.558-20.019 4.559-29.139.001L26.225 349.262c-2.339-1.171-2.688-3.229-2.687-4.352 0-1.119.348-3.171 2.683-4.337l53.912-26.956 150.776 75.387c7.856 3.925 16.471 5.886 25.089 5.886 8.619 0 17.238-1.963 25.095-5.887l150.772-75.386 53.918 26.958zm-.005-80.23L270.571 367.949c-9.125 4.558-20.019 4.559-29.139.001L26.225 260.347c-2.339-1.17-2.687-3.225-2.687-4.345 0-1.122.348-3.175 2.683-4.344l53.912-26.956 150.776 75.387c7.855 3.925 16.472 5.886 25.089 5.886 8.617 0 17.237-1.962 25.094-5.888l150.774-75.386 53.908 26.954c2.339 1.171 2.687 3.225 2.687 4.346.001 1.12-.348 3.175-2.683 4.344z"/></symbol><symbol viewBox="0 0 512.092 512.092" id="link" xmlns="http://www.w3.org/2000/svg"><path d="M312.453 199.601a116.167 116.167 0 0 0-20.053-16.128 119.472 119.472 0 0 0-64.427-18.859 118.952 118.952 0 0 0-84.48 34.987L34.949 308.23a119.466 119.466 0 0 0-34.91 84.318c-.042 65.98 53.41 119.501 119.39 119.543a118.7 118.7 0 0 0 84.395-34.816l89.6-89.6a8.534 8.534 0 0 0-6.059-14.592h-3.413a143.626 143.626 0 0 1-54.613-10.581 8.533 8.533 0 0 0-9.301 1.877l-64.427 64.512c-20.006 20.006-52.442 20.006-72.448 0-20.006-20.006-20.006-52.442 0-72.448l108.971-108.885c19.99-19.965 52.373-19.965 72.363 0 13.472 12.679 34.486 12.679 47.957 0a34.134 34.134 0 0 0 9.899-21.675 34.137 34.137 0 0 0-9.9-26.282z"/><path d="M477.061 34.993c-46.657-46.657-122.303-46.657-168.96 0l-89.515 89.429a8.533 8.533 0 0 0-1.792 9.387 8.532 8.532 0 0 0 8.021 5.205h3.157a143.357 143.357 0 0 1 54.528 10.667 8.533 8.533 0 0 0 9.301-1.877l64.256-64.171c20.006-20.006 52.442-20.006 72.448 0 20.006 20.006 20.006 52.442 0 72.448l-80.043 79.957-.683.768-27.989 27.819c-19.99 19.965-52.373 19.965-72.363 0-13.472-12.679-34.486-12.679-47.957 0a34.139 34.139 0 0 0-9.899 21.845 34.137 34.137 0 0 0 9.899 26.283 118.447 118.447 0 0 0 34.133 23.893c1.792.853 3.584 1.536 5.376 2.304 1.792.768 3.669 1.365 5.461 2.048a67.799 67.799 0 0 0 5.461 1.792l5.035 1.365c3.413.853 6.827 1.536 10.325 2.133 4.214.626 8.458 1.025 12.715 1.195H284.461l5.12-.597c1.877-.085 3.84-.512 6.059-.512h2.901l5.888-.853 2.731-.512 4.949-1.024h.939a119.456 119.456 0 0 0 55.381-31.403l108.629-108.629c46.66-46.657 46.66-122.303.003-168.96z"/></symbol><symbol viewBox="0 0 485.213 485.213" id="magnifier" xmlns="http://www.w3.org/2000/svg"><path d="M471.882 407.567L360.567 296.243a214.267 214.267 0 0 1-64.331 64.321L407.56 471.888c17.772 17.768 46.587 17.768 64.321 0 17.773-17.739 17.773-46.554.001-64.321zM363.909 181.955C363.909 81.473 282.44 0 181.956 0 81.474 0 .001 81.473.001 181.955s81.473 181.951 181.955 181.951c100.484 0 181.953-81.469 181.953-181.951zM181.956 318.416c-75.252 0-136.465-61.208-136.465-136.46 0-75.252 61.213-136.465 136.465-136.465 75.25 0 136.468 61.213 136.468 136.465 0 75.252-61.218 136.46-136.468 136.46z" data-original="#000000" class="factive-path"/><path d="M75.817 181.955h30.322c0-41.803 34.014-75.814 75.816-75.814V75.816c-58.517 0-106.138 47.621-106.138 106.139z" data-original="#000000" class="factive-path"/></symbol><symbol viewBox="-140 0 488 488" id="pencil" xmlns="http://www.w3.org/2000/svg"><path d="M104 468a8.005 8.005 0 0 1-7.434-5.031l-96-240A8.052 8.052 0 0 1 0 220V-12a8 8 0 0 1 8-8h192a8 8 0 0 1 8 8v232a8.052 8.052 0 0 1-.566 2.969l-96 240A8.005 8.005 0 0 1 104 468zM64-4H16v204.688l18.344-18.344a8.004 8.004 0 0 1 11.312 0L64 200.688zm64 0H80v204.688l18.344-18.344a8.004 8.004 0 0 1 11.312 0L128 200.688zm64 0h-48v204.688l18.344-18.344a8.004 8.004 0 0 1 11.312 0L192 200.688zm-1.383 225.93L168 199.312l-26.344 26.344a8.004 8.004 0 0 1-11.312 0L104 199.312l-26.344 26.344a8.004 8.004 0 0 1-11.312 0L40 199.312 17.383 221.93 77.414 372h53.172zM83.817 388L104 438.465 124.184 388zm0 0" data-original="#000000" class="gactive-path"/></symbol><symbol viewBox="0 0 292.359 292.359" id="read-more" xmlns="http://www.w3.org/2000/svg"><path d="M222.979 133.331L95.073 5.424C91.456 1.807 87.178 0 82.226 0s-9.233 1.807-12.85 5.424c-3.617 3.617-5.424 7.898-5.424 12.847v255.813c0 4.948 1.807 9.232 5.424 12.847 3.621 3.617 7.902 5.428 12.85 5.428 4.949 0 9.23-1.811 12.847-5.428l127.906-127.907c3.614-3.613 5.428-7.897 5.428-12.847 0-4.948-1.813-9.229-5.428-12.846z"/></symbol><symbol viewBox="0 0 54 54" id="right-arrow" xmlns="http://www.w3.org/2000/svg"><g fill="#4fba6f"><path d="M27 53C12.641 53 1 41.359 1 27S12.641 1 27 1s26 11.641 26 26-11.641 26-26 26z"/><path d="M27 54C12.112 54 0 41.888 0 27S12.112 0 27 0s27 12.112 27 27-12.112 27-27 27zm0-52C13.215 2 2 13.215 2 27s11.215 25 25 25 25-11.215 25-25S40.785 2 27 2z"/></g><path d="M22.294 40a.999.999 0 0 1-.707-1.707L32.88 27 21.587 15.707a.999.999 0 1 1 1.414-1.414l11.498 11.498a1.711 1.711 0 0 1 0 2.418L23.001 39.707a.997.997 0 0 1-.707.293z" fill="#fff"/></symbol><symbol viewBox="0 0 451 451" id="search" xmlns="http://www.w3.org/2000/svg"><path d="M447.05 428l-109.6-109.6c29.4-33.8 47.2-77.9 47.2-126.1C384.65 86.2 298.35 0 192.35 0 86.25 0 .05 86.3.05 192.3s86.3 192.3 192.3 192.3c48.2 0 92.3-17.8 126.1-47.2L428.05 447c2.6 2.6 6.1 4 9.5 4s6.9-1.3 9.5-4c5.2-5.2 5.2-13.8 0-19zM26.95 192.3c0-91.2 74.2-165.3 165.3-165.3 91.2 0 165.3 74.2 165.3 165.3s-74.1 165.4-165.3 165.4c-91.1 0-165.3-74.2-165.3-165.4z"/></symbol><symbol viewBox="0 0 268.765 268.765" id="settings" xmlns="http://www.w3.org/2000/svg"><path d="M267.92 119.461c-.425-3.778-4.83-6.617-8.639-6.617-12.315 0-23.243-7.231-27.826-18.414-4.682-11.454-1.663-24.812 7.515-33.231a7.463 7.463 0 0 0 .817-10.133 132.977 132.977 0 0 0-21.289-21.5c-3.063-2.458-7.557-2.116-10.213.825-8.01 8.871-22.398 12.168-33.516 7.529-11.57-4.867-18.866-16.591-18.152-29.176a7.455 7.455 0 0 0-6.595-7.849 134.163 134.163 0 0 0-30.232-.08 7.478 7.478 0 0 0-6.654 7.689c.438 12.461-6.946 23.98-18.401 28.672-10.985 4.487-25.272 1.218-33.266-7.574-2.642-2.896-7.063-3.252-10.141-.853a133.478 133.478 0 0 0-21.74 21.493c-2.481 3.086-2.116 7.559.802 10.214 9.353 8.47 12.373 21.944 7.514 33.53-4.639 11.046-16.109 18.165-29.24 18.165-4.261-.137-7.296 2.723-7.762 6.597a134.618 134.618 0 0 0-.058 30.561c.422 3.794 4.961 6.608 8.812 6.608 11.702-.299 22.937 6.946 27.65 18.415 4.698 11.454 1.678 24.804-7.514 33.23a7.469 7.469 0 0 0-.817 10.126 133.459 133.459 0 0 0 21.259 21.508c3.079 2.481 7.559 2.131 10.228-.81 8.04-8.893 22.427-12.184 33.501-7.536 11.599 4.852 18.895 16.575 18.181 29.167a7.464 7.464 0 0 0 6.595 7.85 133.572 133.572 0 0 0 30.233.081 7.479 7.479 0 0 0 6.653-7.696c-.451-12.454 6.946-23.973 18.386-28.657 11.059-4.517 25.286-1.211 33.281 7.572a7.51 7.51 0 0 0 10.142.848 133.787 133.787 0 0 0 21.74-21.494 7.461 7.461 0 0 0-.803-10.213c-9.353-8.47-12.388-21.946-7.529-33.524 4.568-10.899 15.612-18.217 27.491-18.217l1.662.043c3.853.313 7.398-2.655 7.865-6.588a134.504 134.504 0 0 0 .06-30.561zm-133.325 60.03c-24.718 0-44.824-20.106-44.824-44.824 0-24.717 20.106-44.824 44.824-44.824 24.717 0 44.823 20.107 44.823 44.824 0 24.718-20.106 44.824-44.823 44.824z" fill-rule="evenodd" clip-rule="evenodd"/></symbol></svg>